<svg version="1.1"
      xmlns="http://www.w3.org/2000/svg"
      xmlns:xlink="http://www.w3.org/1999/xlink"  id="snapshot-29954" width="250" height="250" viewBox="0 0 250 250"><desc>This image was made on Patterninja.com</desc><defs>
<!-- image 13060 -->
<g id="transformed-13060" data-image="13060" transform="translate(118.82316190676563, 66.14322344563176) rotate(21, 23.176838093234366, 27.85677655436824)"><g><svg version="1.1" width="46.35367618646873px" height="55.71355310873648px" viewBox="0 0 46.35367618646873 55.71355310873648"><g id="original-13060"><svg xmlns="http://www.w3.org/2000/svg" viewBox="0 0 40 48" xmlns:xlink="http://www.w3.org/1999/xlink" version="1.1" preserveAspectRatio="xMidYMid meet">
  <path fill-rule="evenodd" d="M7.446 15.277c3.902 3.901 11.303 2.826 11.303 2.826s1.076-7.401-2.826-11.303C12.022 2.899 4.621 3.974 4.621 3.974s-1.076 7.402 2.825 11.303" fill="rgba(255, 255, 255, 1)" stroke="none"/>
  <path fill-rule="evenodd" d="M10.327 18.157c3.901 3.902 11.302 2.826 11.302 2.826s1.076-7.401-2.825-11.303C14.902 5.779 7.501 6.855 7.501 6.855s-1.076 7.401 2.826 11.302" fill="rgba(45, 176, 141, 1)" stroke="none"/>
  <path fill-rule="evenodd" d="M5.443 4.797c-.14 1.853-.23 6.974 2.64 9.844 2.877 2.878 7.99 2.781 9.844 2.641.14-1.853.23-6.975-2.64-9.846-2.869-2.868-7.99-2.778-9.844-2.639zm10.971 14.346c-2.657 0-6.864-.489-9.604-3.229C2.637 11.741 3.683 4.166 3.73 3.845a.9.9 0 0 1 .761-.761c.32-.045 7.896-1.094 12.069 3.079 4.173 4.174 3.127 11.748 3.08 12.069a.9.9 0 0 1-.761.761c-.11.016-1.075.15-2.465.15z" fill="rgba(32, 11, 12, 1)" stroke="none"/>
  <path fill-rule="evenodd" d="M27.381 2.387a.9.9 0 0 1-.143-1.789 18.67 18.67 0 0 1 2.036-.211c.528-.017.919.357.944.853a.9.9 0 0 1-.854.944c-.63.031-1.248.096-1.838.192a1.022 1.022 0 0 1-.145.011" fill="rgba(32, 11, 12, 1)" stroke="none"/>
  <path fill-rule="evenodd" d="M19.014 19.846a.9.9 0 0 1-.895-.817c-.044-.472-1.023-11.588 2.962-15.573a8.957 8.957 0 0 1 2.08-1.533.9.9 0 0 1 .855 1.583 7.164 7.164 0 0 0-1.662 1.223c-2.813 2.813-2.717 11.156-2.442 14.134a.9.9 0 0 1-.898.983" fill="rgba(32, 11, 12, 1)" stroke="none"/>
  <path fill-rule="evenodd" d="M12.885 15.685c2.188 0 4.234.714 6 1.942 1.766-1.228 3.812-1.942 6-1.942 6.627 0 12 6.447 12 14.4s-5.373 14.4-12 14.4c-2.188 0-4.234-.714-6-1.942-1.766 1.228-3.812 1.942-6 1.942-6.628 0-12-6.447-12-14.4s5.372-14.4 12-14.4" fill="rgba(255, 255, 255, 1)" stroke="none"/>
  <path fill-rule="evenodd" d="M15.765 18.565c2.188 0 4.234.714 6 1.942 1.766-1.228 3.812-1.942 6-1.942 6.628 0 12 6.447 12 14.4s-5.372 14.4-12 14.4c-2.188 0-4.234-.714-6-1.942-1.766 1.228-3.812 1.942-6 1.942-6.627 0-12-6.447-12-14.4s5.373-14.4 12-14.4" fill="rgba(249, 245, 246, 1)" stroke="none"/>
  <path fill-rule="evenodd" d="M18.885 41.643c.179 0 .359.054.514.161 1.676 1.165 3.573 1.781 5.486 1.781 6.12 0 11.1-6.056 11.1-13.5s-4.98-13.5-11.1-13.5c-1.913 0-3.81.616-5.486 1.781a.9.9 0 0 1-1.028 0c-1.676-1.165-3.573-1.781-5.486-1.781-6.12 0-11.1 6.056-11.1 13.5s4.98 13.5 11.1 13.5c1.913 0 3.81-.616 5.486-1.781a.905.905 0 0 1 .514-.161zm6 3.742c-2.087 0-4.149-.608-6-1.764-1.851 1.156-3.913 1.764-6 1.764-7.113 0-12.9-6.863-12.9-15.3 0-8.437 5.787-15.3 12.9-15.3 2.087 0 4.149.608 6 1.764 1.851-1.156 3.913-1.764 6-1.764 7.113 0 12.9 6.863 12.9 15.3 0 8.437-5.787 15.3-12.9 15.3z" fill="rgba(32, 11, 12, 1)" stroke="none"/>
  <path fill-rule="evenodd" d="M23.438 39.153a6.13 6.13 0 0 1-1.116-.102.9.9 0 0 1 .326-1.771c2.341.433 4.748-1.113 5.845-3.757a.9.9 0 0 1 1.662.69c-1.258 3.034-3.917 4.94-6.717 4.94" fill="rgba(32, 11, 12, 1)" stroke="none"/>
  <path fill-rule="evenodd" d="M29.903 30.792a.9.9 0 0 1-.894-.806 7.337 7.337 0 0 0-.195-1.074.9.9 0 0 1 1.742-.453c.114.44.196.89.243 1.339a.899.899 0 0 1-.896.994" fill="rgba(32, 11, 12, 1)" stroke="none"/>
</svg>
</g></svg></g></g>
<!-- /image 13060 -->

<!-- image 39817 -->
<g id="transformed-39817" data-image="39817" transform="translate(168.52337934856257, 210.59060017856075) rotate(19, 19.476620651437443, 23.40939982143925)"><g><svg version="1.1" width="38.953241302874886px" height="46.8187996428785px" viewBox="0 0 38.953241302874886 46.8187996428785"><g id="original-39817"><svg xmlns="http://www.w3.org/2000/svg" viewBox="0 0 40 48" xmlns:xlink="http://www.w3.org/1999/xlink" version="1.1" preserveAspectRatio="xMidYMid meet">
  <path fill-rule="evenodd" d="M7.446 15.277c3.902 3.901 11.303 2.826 11.303 2.826s1.076-7.401-2.826-11.303C12.022 2.899 4.621 3.974 4.621 3.974s-1.076 7.402 2.825 11.303" fill="rgba(255, 255, 255, 1)" stroke="none"/>
  <path fill-rule="evenodd" d="M10.327 18.157c3.901 3.902 11.302 2.826 11.302 2.826s1.076-7.401-2.825-11.303C14.902 5.779 7.501 6.855 7.501 6.855s-1.076 7.401 2.826 11.302" fill="rgba(45, 176, 141, 1)" stroke="none"/>
  <path fill-rule="evenodd" d="M5.443 4.797c-.14 1.853-.23 6.974 2.64 9.844 2.877 2.878 7.99 2.781 9.844 2.641.14-1.853.23-6.975-2.64-9.846-2.869-2.868-7.99-2.778-9.844-2.639zm10.971 14.346c-2.657 0-6.864-.489-9.604-3.229C2.637 11.741 3.683 4.166 3.73 3.845a.9.9 0 0 1 .761-.761c.32-.045 7.896-1.094 12.069 3.079 4.173 4.174 3.127 11.748 3.08 12.069a.9.9 0 0 1-.761.761c-.11.016-1.075.15-2.465.15z" fill="rgba(32, 11, 12, 1)" stroke="none"/>
  <path fill-rule="evenodd" d="M27.381 2.387a.9.9 0 0 1-.143-1.789 18.67 18.67 0 0 1 2.036-.211c.528-.017.919.357.944.853a.9.9 0 0 1-.854.944c-.63.031-1.248.096-1.838.192a1.022 1.022 0 0 1-.145.011" fill="rgba(32, 11, 12, 1)" stroke="none"/>
  <path fill-rule="evenodd" d="M19.014 19.846a.9.9 0 0 1-.895-.817c-.044-.472-1.023-11.588 2.962-15.573a8.957 8.957 0 0 1 2.08-1.533.9.9 0 0 1 .855 1.583 7.164 7.164 0 0 0-1.662 1.223c-2.813 2.813-2.717 11.156-2.442 14.134a.9.9 0 0 1-.898.983" fill="rgba(32, 11, 12, 1)" stroke="none"/>
  <path fill-rule="evenodd" d="M12.885 15.685c2.188 0 4.234.714 6 1.942 1.766-1.228 3.812-1.942 6-1.942 6.627 0 12 6.447 12 14.4s-5.373 14.4-12 14.4c-2.188 0-4.234-.714-6-1.942-1.766 1.228-3.812 1.942-6 1.942-6.628 0-12-6.447-12-14.4s5.372-14.4 12-14.4" fill="rgba(255, 255, 255, 1)" stroke="none"/>
  <path fill-rule="evenodd" d="M15.765 18.565c2.188 0 4.234.714 6 1.942 1.766-1.228 3.812-1.942 6-1.942 6.628 0 12 6.447 12 14.4s-5.372 14.4-12 14.4c-2.188 0-4.234-.714-6-1.942-1.766 1.228-3.812 1.942-6 1.942-6.627 0-12-6.447-12-14.4s5.373-14.4 12-14.4" fill="rgba(249, 245, 246, 1)" stroke="none"/>
  <path fill-rule="evenodd" d="M18.885 41.643c.179 0 .359.054.514.161 1.676 1.165 3.573 1.781 5.486 1.781 6.12 0 11.1-6.056 11.1-13.5s-4.98-13.5-11.1-13.5c-1.913 0-3.81.616-5.486 1.781a.9.9 0 0 1-1.028 0c-1.676-1.165-3.573-1.781-5.486-1.781-6.12 0-11.1 6.056-11.1 13.5s4.98 13.5 11.1 13.5c1.913 0 3.81-.616 5.486-1.781a.905.905 0 0 1 .514-.161zm6 3.742c-2.087 0-4.149-.608-6-1.764-1.851 1.156-3.913 1.764-6 1.764-7.113 0-12.9-6.863-12.9-15.3 0-8.437 5.787-15.3 12.9-15.3 2.087 0 4.149.608 6 1.764 1.851-1.156 3.913-1.764 6-1.764 7.113 0 12.9 6.863 12.9 15.3 0 8.437-5.787 15.3-12.9 15.3z" fill="rgba(32, 11, 12, 1)" stroke="none"/>
  <path fill-rule="evenodd" d="M23.438 39.153a6.13 6.13 0 0 1-1.116-.102.9.9 0 0 1 .326-1.771c2.341.433 4.748-1.113 5.845-3.757a.9.9 0 0 1 1.662.69c-1.258 3.034-3.917 4.94-6.717 4.94" fill="rgba(32, 11, 12, 1)" stroke="none"/>
  <path fill-rule="evenodd" d="M29.903 30.792a.9.9 0 0 1-.894-.806 7.337 7.337 0 0 0-.195-1.074.9.9 0 0 1 1.742-.453c.114.44.196.89.243 1.339a.899.899 0 0 1-.896.994" fill="rgba(32, 11, 12, 1)" stroke="none"/>
</svg>
</g></svg></g></g>
<!-- /image 39817 -->

<!-- image 14706 -->
<g id="transformed-14706" data-image="14706" transform="translate(24.523379348562557, -13.409399821439251) rotate(19, 19.476620651437443, 23.40939982143925)"><g><svg version="1.1" width="38.953241302874886px" height="46.8187996428785px" viewBox="0 0 38.953241302874886 46.8187996428785"><g id="original-14706"><svg xmlns="http://www.w3.org/2000/svg" viewBox="0 0 40 48" xmlns:xlink="http://www.w3.org/1999/xlink" version="1.1" preserveAspectRatio="xMidYMid meet">
  <path fill-rule="evenodd" d="M7.446 15.277c3.902 3.901 11.303 2.826 11.303 2.826s1.076-7.401-2.826-11.303C12.022 2.899 4.621 3.974 4.621 3.974s-1.076 7.402 2.825 11.303" fill="rgba(255, 255, 255, 1)" stroke="none"/>
  <path fill-rule="evenodd" d="M10.327 18.157c3.901 3.902 11.302 2.826 11.302 2.826s1.076-7.401-2.825-11.303C14.902 5.779 7.501 6.855 7.501 6.855s-1.076 7.401 2.826 11.302" fill="rgba(45, 176, 141, 1)" stroke="none"/>
  <path fill-rule="evenodd" d="M5.443 4.797c-.14 1.853-.23 6.974 2.64 9.844 2.877 2.878 7.99 2.781 9.844 2.641.14-1.853.23-6.975-2.64-9.846-2.869-2.868-7.99-2.778-9.844-2.639zm10.971 14.346c-2.657 0-6.864-.489-9.604-3.229C2.637 11.741 3.683 4.166 3.73 3.845a.9.9 0 0 1 .761-.761c.32-.045 7.896-1.094 12.069 3.079 4.173 4.174 3.127 11.748 3.08 12.069a.9.9 0 0 1-.761.761c-.11.016-1.075.15-2.465.15z" fill="rgba(32, 11, 12, 1)" stroke="none"/>
  <path fill-rule="evenodd" d="M27.381 2.387a.9.9 0 0 1-.143-1.789 18.67 18.67 0 0 1 2.036-.211c.528-.017.919.357.944.853a.9.9 0 0 1-.854.944c-.63.031-1.248.096-1.838.192a1.022 1.022 0 0 1-.145.011" fill="rgba(32, 11, 12, 1)" stroke="none"/>
  <path fill-rule="evenodd" d="M19.014 19.846a.9.9 0 0 1-.895-.817c-.044-.472-1.023-11.588 2.962-15.573a8.957 8.957 0 0 1 2.08-1.533.9.9 0 0 1 .855 1.583 7.164 7.164 0 0 0-1.662 1.223c-2.813 2.813-2.717 11.156-2.442 14.134a.9.9 0 0 1-.898.983" fill="rgba(32, 11, 12, 1)" stroke="none"/>
  <path fill-rule="evenodd" d="M12.885 15.685c2.188 0 4.234.714 6 1.942 1.766-1.228 3.812-1.942 6-1.942 6.627 0 12 6.447 12 14.4s-5.373 14.4-12 14.4c-2.188 0-4.234-.714-6-1.942-1.766 1.228-3.812 1.942-6 1.942-6.628 0-12-6.447-12-14.4s5.372-14.4 12-14.4" fill="rgba(255, 255, 255, 1)" stroke="none"/>
  <path fill-rule="evenodd" d="M15.765 18.565c2.188 0 4.234.714 6 1.942 1.766-1.228 3.812-1.942 6-1.942 6.628 0 12 6.447 12 14.4s-5.372 14.4-12 14.4c-2.188 0-4.234-.714-6-1.942-1.766 1.228-3.812 1.942-6 1.942-6.627 0-12-6.447-12-14.4s5.373-14.4 12-14.4" fill="rgba(249, 245, 246, 1)" stroke="none"/>
  <path fill-rule="evenodd" d="M18.885 41.643c.179 0 .359.054.514.161 1.676 1.165 3.573 1.781 5.486 1.781 6.12 0 11.1-6.056 11.1-13.5s-4.98-13.5-11.1-13.5c-1.913 0-3.81.616-5.486 1.781a.9.9 0 0 1-1.028 0c-1.676-1.165-3.573-1.781-5.486-1.781-6.12 0-11.1 6.056-11.1 13.5s4.98 13.5 11.1 13.5c1.913 0 3.81-.616 5.486-1.781a.905.905 0 0 1 .514-.161zm6 3.742c-2.087 0-4.149-.608-6-1.764-1.851 1.156-3.913 1.764-6 1.764-7.113 0-12.9-6.863-12.9-15.3 0-8.437 5.787-15.3 12.9-15.3 2.087 0 4.149.608 6 1.764 1.851-1.156 3.913-1.764 6-1.764 7.113 0 12.9 6.863 12.9 15.3 0 8.437-5.787 15.3-12.9 15.3z" fill="rgba(32, 11, 12, 1)" stroke="none"/>
  <path fill-rule="evenodd" d="M23.438 39.153a6.13 6.13 0 0 1-1.116-.102.9.9 0 0 1 .326-1.771c2.341.433 4.748-1.113 5.845-3.757a.9.9 0 0 1 1.662.69c-1.258 3.034-3.917 4.94-6.717 4.94" fill="rgba(32, 11, 12, 1)" stroke="none"/>
  <path fill-rule="evenodd" d="M29.903 30.792a.9.9 0 0 1-.894-.806 7.337 7.337 0 0 0-.195-1.074.9.9 0 0 1 1.742-.453c.114.44.196.89.243 1.339a.899.899 0 0 1-.896.994" fill="rgba(32, 11, 12, 1)" stroke="none"/>
</svg>
</g></svg></g></g>
<!-- /image 14706 -->

<!-- image 65287 -->
<g id="transformed-65287" data-image="65287" transform="translate(0.8231619067656339, 117.14322344563176) rotate(21, 23.176838093234366, 27.85677655436824)"><g><svg version="1.1" width="46.35367618646873px" height="55.71355310873648px" viewBox="0 0 46.35367618646873 55.71355310873648"><g id="original-65287"><svg xmlns="http://www.w3.org/2000/svg" viewBox="0 0 40 48" xmlns:xlink="http://www.w3.org/1999/xlink" version="1.1" preserveAspectRatio="xMidYMid meet">
  <path fill-rule="evenodd" d="M7.446 15.277c3.902 3.901 11.303 2.826 11.303 2.826s1.076-7.401-2.826-11.303C12.022 2.899 4.621 3.974 4.621 3.974s-1.076 7.402 2.825 11.303" fill="rgba(255, 255, 255, 1)" stroke="none"/>
  <path fill-rule="evenodd" d="M10.327 18.157c3.901 3.902 11.302 2.826 11.302 2.826s1.076-7.401-2.825-11.303C14.902 5.779 7.501 6.855 7.501 6.855s-1.076 7.401 2.826 11.302" fill="rgba(45, 176, 141, 1)" stroke="none"/>
  <path fill-rule="evenodd" d="M5.443 4.797c-.14 1.853-.23 6.974 2.64 9.844 2.877 2.878 7.99 2.781 9.844 2.641.14-1.853.23-6.975-2.64-9.846-2.869-2.868-7.99-2.778-9.844-2.639zm10.971 14.346c-2.657 0-6.864-.489-9.604-3.229C2.637 11.741 3.683 4.166 3.73 3.845a.9.9 0 0 1 .761-.761c.32-.045 7.896-1.094 12.069 3.079 4.173 4.174 3.127 11.748 3.08 12.069a.9.9 0 0 1-.761.761c-.11.016-1.075.15-2.465.15z" fill="rgba(32, 11, 12, 1)" stroke="none"/>
  <path fill-rule="evenodd" d="M27.381 2.387a.9.9 0 0 1-.143-1.789 18.67 18.67 0 0 1 2.036-.211c.528-.017.919.357.944.853a.9.9 0 0 1-.854.944c-.63.031-1.248.096-1.838.192a1.022 1.022 0 0 1-.145.011" fill="rgba(32, 11, 12, 1)" stroke="none"/>
  <path fill-rule="evenodd" d="M19.014 19.846a.9.9 0 0 1-.895-.817c-.044-.472-1.023-11.588 2.962-15.573a8.957 8.957 0 0 1 2.08-1.533.9.9 0 0 1 .855 1.583 7.164 7.164 0 0 0-1.662 1.223c-2.813 2.813-2.717 11.156-2.442 14.134a.9.9 0 0 1-.898.983" fill="rgba(32, 11, 12, 1)" stroke="none"/>
  <path fill-rule="evenodd" d="M12.885 15.685c2.188 0 4.234.714 6 1.942 1.766-1.228 3.812-1.942 6-1.942 6.627 0 12 6.447 12 14.4s-5.373 14.4-12 14.4c-2.188 0-4.234-.714-6-1.942-1.766 1.228-3.812 1.942-6 1.942-6.628 0-12-6.447-12-14.4s5.372-14.4 12-14.4" fill="rgba(255, 255, 255, 1)" stroke="none"/>
  <path fill-rule="evenodd" d="M15.765 18.565c2.188 0 4.234.714 6 1.942 1.766-1.228 3.812-1.942 6-1.942 6.628 0 12 6.447 12 14.4s-5.372 14.4-12 14.4c-2.188 0-4.234-.714-6-1.942-1.766 1.228-3.812 1.942-6 1.942-6.627 0-12-6.447-12-14.4s5.373-14.4 12-14.4" fill="rgba(249, 245, 246, 1)" stroke="none"/>
  <path fill-rule="evenodd" d="M18.885 41.643c.179 0 .359.054.514.161 1.676 1.165 3.573 1.781 5.486 1.781 6.12 0 11.1-6.056 11.1-13.5s-4.98-13.5-11.1-13.5c-1.913 0-3.81.616-5.486 1.781a.9.9 0 0 1-1.028 0c-1.676-1.165-3.573-1.781-5.486-1.781-6.12 0-11.1 6.056-11.1 13.5s4.98 13.5 11.1 13.5c1.913 0 3.81-.616 5.486-1.781a.905.905 0 0 1 .514-.161zm6 3.742c-2.087 0-4.149-.608-6-1.764-1.851 1.156-3.913 1.764-6 1.764-7.113 0-12.9-6.863-12.9-15.3 0-8.437 5.787-15.3 12.9-15.3 2.087 0 4.149.608 6 1.764 1.851-1.156 3.913-1.764 6-1.764 7.113 0 12.9 6.863 12.9 15.3 0 8.437-5.787 15.3-12.9 15.3z" fill="rgba(32, 11, 12, 1)" stroke="none"/>
  <path fill-rule="evenodd" d="M23.438 39.153a6.13 6.13 0 0 1-1.116-.102.9.9 0 0 1 .326-1.771c2.341.433 4.748-1.113 5.845-3.757a.9.9 0 0 1 1.662.69c-1.258 3.034-3.917 4.94-6.717 4.94" fill="rgba(32, 11, 12, 1)" stroke="none"/>
  <path fill-rule="evenodd" d="M29.903 30.792a.9.9 0 0 1-.894-.806 7.337 7.337 0 0 0-.195-1.074.9.9 0 0 1 1.742-.453c.114.44.196.89.243 1.339a.899.899 0 0 1-.896.994" fill="rgba(32, 11, 12, 1)" stroke="none"/>
</svg>
</g></svg></g></g>
<!-- /image 65287 -->
</defs><rect x="0" y="0" width="250" height="250" fill="rgba(255, 255, 255, 0)"></rect><use xlink:href="#transformed-13060" transform="translate(-250, -250)"></use><use xlink:href="#transformed-13060" transform="translate(0, -250)"></use><use xlink:href="#transformed-13060" transform="translate(250, -250)"></use><use xlink:href="#transformed-13060" transform="translate(-250, 0)"></use><use xlink:href="#transformed-13060" transform="translate(0, 0)"></use><use xlink:href="#transformed-13060" transform="translate(250, 0)"></use><use xlink:href="#transformed-13060" transform="translate(-250, 250)"></use><use xlink:href="#transformed-13060" transform="translate(0, 250)"></use><use xlink:href="#transformed-13060" transform="translate(250, 250)"></use><use xlink:href="#transformed-39817" transform="translate(-250, -250)"></use><use xlink:href="#transformed-39817" transform="translate(0, -250)"></use><use xlink:href="#transformed-39817" transform="translate(250, -250)"></use><use xlink:href="#transformed-39817" transform="translate(-250, 0)"></use><use xlink:href="#transformed-39817" transform="translate(0, 0)"></use><use xlink:href="#transformed-39817" transform="translate(250, 0)"></use><use xlink:href="#transformed-39817" transform="translate(-250, 250)"></use><use xlink:href="#transformed-39817" transform="translate(0, 250)"></use><use xlink:href="#transformed-39817" transform="translate(250, 250)"></use><use xlink:href="#transformed-14706" transform="translate(-250, -250)"></use><use xlink:href="#transformed-14706" transform="translate(0, -250)"></use><use xlink:href="#transformed-14706" transform="translate(250, -250)"></use><use xlink:href="#transformed-14706" transform="translate(-250, 0)"></use><use xlink:href="#transformed-14706" transform="translate(0, 0)"></use><use xlink:href="#transformed-14706" transform="translate(250, 0)"></use><use xlink:href="#transformed-14706" transform="translate(-250, 250)"></use><use xlink:href="#transformed-14706" transform="translate(0, 250)"></use><use xlink:href="#transformed-14706" transform="translate(250, 250)"></use><use xlink:href="#transformed-65287" transform="translate(-250, -250)"></use><use xlink:href="#transformed-65287" transform="translate(0, -250)"></use><use xlink:href="#transformed-65287" transform="translate(250, -250)"></use><use xlink:href="#transformed-65287" transform="translate(-250, 0)"></use><use xlink:href="#transformed-65287" transform="translate(0, 0)"></use><use xlink:href="#transformed-65287" transform="translate(250, 0)"></use><use xlink:href="#transformed-65287" transform="translate(-250, 250)"></use><use xlink:href="#transformed-65287" transform="translate(0, 250)"></use><use xlink:href="#transformed-65287" transform="translate(250, 250)"></use></svg>